<svg width="33" height="32" viewBox="0 0 33 32" fill="none" xmlns="http://www.w3.org/2000/svg">
<path fill-rule="evenodd" clip-rule="evenodd" d="M2.01632 20.2522C2.01632 20.1936 2.05115 20.249 2.02899 20.2522C2.02899 20.2522 2.01632 20.3155 2.01632 20.2522ZM1.99417 20.1619L2.0005 20.1683C1.99891 20.1683 1.991 20.1635 1.99417 20.1619ZM1.97042 20.0939C1.97042 20.0353 2.00683 20.0907 1.98467 20.0939C1.98467 20.0939 1.97042 20.1572 1.97042 20.0939ZM31.5957 15.9288C31.5957 17.4961 31.4042 18.7894 31.018 20.1493C30.8803 20.6321 30.7268 21.0896 30.5416 21.5518C30.4482 21.7877 30.3596 21.9998 30.2598 22.2215C29.8847 23.0621 29.4146 23.8568 28.8986 24.6166C28.772 24.8034 28.6422 24.9681 28.5045 25.1517L27.1892 26.6635C26.5577 27.2936 25.8787 27.8587 25.1458 28.378C24.777 28.6392 24.3924 28.8687 23.9967 29.1078C23.5994 29.3468 23.1736 29.5415 22.7542 29.7441C22.6482 29.7964 22.5516 29.836 22.4392 29.8819L21.7602 30.1542C21.6383 30.2001 21.5244 30.2349 21.4088 30.2776C20.4607 30.6227 18.9966 30.9631 17.9488 31.0264C17.3521 31.0628 17.0023 31.0945 16.3882 31.0945C14.8893 31.0945 13.6262 30.8919 12.2998 30.4977C11.3691 30.2222 11.138 30.1051 10.296 29.7631L9.62169 29.4402C8.60553 28.902 8.41876 28.7437 7.55613 28.1563C7.2459 27.9442 6.97208 27.7099 6.68559 27.4661C6.4086 27.2318 6.1601 26.9659 5.88628 26.7268L5.1107 25.8942C5.04106 25.8198 4.99674 25.7659 4.93026 25.6899C3.75899 24.3459 2.81247 22.5555 2.22842 20.8996C2.18252 20.7714 2.04798 20.4136 2.03848 20.2981C2.12712 20.3994 2.18727 20.6368 2.35504 20.6368C2.44052 20.6368 2.66369 20.507 2.78557 20.4785C2.80139 21.2052 3.75582 23.184 4.44593 23.2774C4.58205 23.2964 4.75141 23.1982 4.8163 23.1207C5.10279 22.7835 4.93343 22.1233 4.8353 21.7323C4.69443 21.1672 4.41427 20.3804 4.41427 19.7994C4.41427 19.6553 4.47916 19.5635 4.55514 19.4875C5.0838 18.9556 5.85145 20.01 6.05247 20.3804C6.12053 20.5054 6.18068 20.5988 6.23924 20.7366C6.29939 20.8838 6.34054 20.993 6.40069 21.1418C6.47508 21.3302 6.60962 21.821 6.60962 22.0632C6.14427 22.1882 6.30097 22.8563 6.59854 23.0051C6.73308 23.0732 6.97208 22.9006 7.24432 22.9006C7.26015 23.0953 7.4026 23.1871 7.53556 23.2885C7.58462 23.3264 7.61153 23.3597 7.67326 23.3755V23.4214C7.55455 23.4531 7.26015 23.7238 7.14777 23.8235L6.58113 24.4108C6.3263 24.7132 6.11737 25.0615 5.93059 25.4129C5.75649 25.2958 5.34021 24.824 5.11703 24.824C5.0648 24.824 5.09013 24.8319 5.02681 24.8478C4.973 25.0726 5.0838 25.1185 5.21675 25.291C5.27531 25.3654 5.41302 25.5047 5.48899 25.5617C5.69001 25.7169 5.8657 25.9385 6.06672 26.092L6.64919 26.5955C7.0528 26.9706 7.5593 27.368 8.0009 27.7131L8.47891 28.0709C8.93634 28.4017 9.81321 29.0381 10.4083 28.6471C10.9861 28.2672 10.258 27.835 10.0728 27.835C9.89393 27.835 9.74515 28.0835 9.37161 28.0835C9.05505 28.0835 7.91068 27.1479 7.59254 26.8978C7.37411 26.7253 7.17309 26.5131 6.95308 26.3374C6.86445 26.2662 6.69192 26.1364 6.63336 26.0477C6.67135 25.8847 6.86761 25.5776 6.95942 25.4224C7.07971 25.2166 7.22374 25.0409 7.37253 24.8636C7.58779 24.6071 7.85212 24.3839 8.12594 24.1908C8.22408 24.1227 8.32063 24.0547 8.42034 23.9866L8.82554 24.4425C9.27664 25.0045 9.89077 24.8778 9.09462 24.0831C9.00914 23.9992 8.94108 23.9312 8.8572 23.8457L8.47258 23.5053C8.41559 23.4531 8.39502 23.4404 8.33804 23.3914C8.11011 23.1998 7.75715 22.8769 7.47066 22.8104C7.52289 22.5824 7.47383 22.3386 7.30763 22.1582C6.97524 21.7988 7.15727 22.3545 6.96733 21.5914C6.73941 20.6701 6.30888 19.8849 5.73116 19.163C5.60929 19.011 5.41935 18.8496 5.25949 18.7293C4.64219 18.2638 3.84921 18.4316 3.84921 19.2786C3.84921 20.3012 4.83846 22.3798 4.18793 22.3798C3.87453 22.3798 3.21609 21.0579 3.23983 20.6163C3.25882 20.2743 3.57697 20.3091 3.57697 19.9799C3.57697 19.7646 3.39653 19.4147 3.14803 19.4147C2.98658 19.4147 2.11129 19.706 2.01474 19.8659L1.94826 20.0479C1.9451 19.9007 1.89445 19.7772 1.85488 19.6443C1.73775 19.239 1.66811 18.8195 1.59846 18.3842C1.50191 17.7699 1.42436 17.1541 1.42752 16.5177C1.4291 16.3294 1.40378 16.2344 1.40536 16.0428L1.47501 14.5943C1.49717 14.2935 1.55573 13.9833 1.58739 13.6904C1.66969 12.9305 1.94826 11.9348 2.17777 11.2462C2.48009 10.3375 2.81564 9.62987 3.25249 8.76869C3.31264 8.64838 3.3807 8.54864 3.44243 8.43625C3.56114 8.2162 3.69884 8.0199 3.8318 7.80777C4.14678 7.30278 4.50449 6.80728 4.89544 6.35928L6.13003 5.03585C6.37536 4.78572 6.65077 4.55777 6.92459 4.33614L7.9455 3.56994C7.99615 3.53353 8.02939 3.50503 8.09112 3.46546L9.68817 2.52829L11.1016 1.90457C11.9785 1.54996 12.9392 1.31409 13.8842 1.1352C15.7677 0.777433 17.9694 0.831257 19.8545 1.27926C20.3958 1.40749 20.915 1.55788 21.4373 1.7336C21.9422 1.90298 22.3886 2.11195 22.8729 2.31141C23.3319 2.50138 23.7799 2.761 24.2056 3.01587C24.6425 3.28024 25.0239 3.53511 25.4307 3.82798C26.029 4.25857 26.2285 4.48969 26.689 4.85696C26.8964 5.02318 27.357 5.52184 27.5738 5.73714C27.9537 6.11391 28.7958 7.19513 29.0237 7.56873C29.0632 7.63522 29.0791 7.65738 29.1234 7.71754L29.7027 8.67845C29.9892 9.24202 30.1079 9.44782 30.3659 10.0288C30.4767 10.2758 30.559 10.4942 30.6587 10.7554C30.8027 11.1306 30.9135 11.5137 31.0338 11.8968C31.3678 12.9669 31.5957 14.626 31.5957 15.9288ZM0.5 15.9747C0.5 17.4786 0.691519 18.9382 1.1078 20.3677C1.18219 20.6242 1.25025 20.8838 1.34363 21.1292C1.4386 21.3793 1.51299 21.6183 1.60796 21.859C1.79157 22.3228 1.99733 22.774 2.21892 23.2172C2.54023 23.8599 2.92802 24.4868 3.32372 25.0789L4.39844 26.4704C4.44434 26.5242 4.47283 26.5416 4.51873 26.6002C4.5678 26.6635 4.57888 26.6762 4.63586 26.7316C4.96034 27.0498 5.2579 27.4424 5.61087 27.7258L6.67451 28.6313C6.9515 28.8513 7.24274 29.0397 7.52922 29.2487C7.63211 29.3231 7.72391 29.3769 7.82837 29.4465C7.93126 29.5162 8.02622 29.5748 8.13069 29.6413L9.08512 30.1811C9.31463 30.2966 9.51722 30.4027 9.74831 30.5135C10.679 30.9599 11.6777 31.2924 12.6797 31.5425C13.2194 31.6771 13.7607 31.7736 14.3353 31.8575C14.6281 31.9003 14.9304 31.9446 15.2327 31.9541C15.5524 31.9652 15.8374 32 16.184 32C17.7225 32 18.832 31.8892 20.2898 31.5567C20.7994 31.4396 21.2949 31.2718 21.7871 31.1087C22.3268 30.9299 22.8286 30.7035 23.3446 30.4708C23.8337 30.2507 24.3133 29.9816 24.7739 29.7046L25.6761 29.1125C26.3361 28.6313 26.9834 28.1389 27.5612 27.558C27.6197 27.4994 27.6371 27.493 27.6973 27.444C27.8904 27.2825 28.5393 26.5416 28.7499 26.301C28.8258 26.2124 28.8891 26.1316 28.9635 26.0398C29.0427 25.9417 29.1092 25.8641 29.1851 25.7628C29.6837 25.1011 30.1158 24.4172 30.5337 23.6937C31.0908 22.7312 31.5308 21.6516 31.8379 20.5846C31.9883 20.0622 32.1323 19.5398 32.2241 19.0015C32.547 17.105 32.5771 15.7737 32.3634 13.8709C32.2463 12.8197 31.9519 11.6514 31.5989 10.6747C31.5546 10.5512 31.5055 10.4309 31.4628 10.3122L31.1731 9.60612C31.1146 9.48423 31.0797 9.38133 31.0228 9.25943C30.9183 9.03464 30.8091 8.83201 30.6983 8.61038C30.168 7.54657 29.3735 6.39094 28.5916 5.51076C28.5425 5.45694 28.5172 5.43953 28.4729 5.38095C28.2434 5.07859 27.7923 4.667 27.5058 4.37888L26.5751 3.56677C26.5197 3.52403 26.4912 3.49554 26.439 3.45279C25.513 2.69768 24.4652 2.06446 23.3889 1.5468C23.3224 1.51514 23.2797 1.50405 23.2148 1.47239L22.3585 1.10512C18.6199 -0.398776 14.3495 -0.341786 10.6094 1.11779C10.4812 1.16845 10.3799 1.21436 10.258 1.26501C10.1393 1.3125 10.0221 1.37108 9.91134 1.4154C9.78472 1.46764 9.69133 1.52622 9.57421 1.57687L9.07721 1.827C8.27472 2.24492 7.51973 2.73567 6.7948 3.27866C6.51148 3.49079 6.24874 3.72983 5.97333 3.95146C5.9211 3.99261 5.89577 4.03061 5.84354 4.07177L5.58713 4.31081C5.53173 4.36147 5.5064 4.36938 5.44942 4.42321C5.15819 4.70499 4.73241 5.13875 4.4665 5.45536L2.9755 7.45C2.81564 7.71437 2.65419 7.95975 2.51332 8.23203L2.3408 8.55814C2.30439 8.62938 2.2854 8.64838 2.249 8.71486C2.19202 8.82409 2.1287 8.94599 2.08755 9.05047C2.03374 9.18345 1.97359 9.27368 1.91819 9.40349C1.5035 10.3771 1.15686 11.3237 0.916277 12.3844C0.66936 13.4719 0.5 14.6513 0.5 15.9747Z" fill="#009846"/>
<path fill-rule="evenodd" clip-rule="evenodd" d="M13.6484 22.1313C13.6801 22.1946 13.6959 22.2484 13.7323 22.3196L13.9887 22.9006C13.8526 22.9006 13.2464 22.7423 13.1514 22.6964C13.1926 22.6347 13.5772 22.1788 13.6484 22.1313ZM11.9295 22.1091C11.7617 21.9967 11.5164 21.8178 11.4088 21.6563L12.0197 21.43C11.9722 21.6326 11.977 21.9001 11.9295 22.1091ZM10.5256 19.7314C10.6474 19.7598 10.9292 19.8216 11.0241 19.8675C10.9133 20.0321 10.9323 19.9767 10.8516 20.0812C10.7915 20.1572 10.7092 20.2015 10.6838 20.2981L10.5256 19.7314ZM10.5477 18.0565C10.5477 17.8966 10.5936 17.8079 10.5936 17.6496C10.7424 17.6623 10.7867 17.7335 10.9102 17.762V17.8079C10.8089 17.8349 10.6506 18.0296 10.5477 18.0565ZM10.9102 16.3595C10.9197 16.2502 11.0036 16.0349 11.0241 15.951C11.04 15.97 11.0558 15.9874 11.0748 16.0128L11.2267 16.2233C11.1302 16.274 11.0115 16.3104 10.9102 16.3595ZM12.3584 12.8736L12.1986 14.4329C12.1923 14.5263 12.1859 14.6339 12.1764 14.7511L12.1495 15.4239C12.1179 15.6502 12.1669 16.5162 12.178 16.7425C12.1986 17.1478 12.2761 17.5816 12.3489 17.9536C12.5278 18.8575 13.0517 20.0923 13.8764 20.5688C14.1818 20.7445 14.5475 20.8189 15.0302 20.8189C15.0239 20.887 14.9922 20.9788 14.9701 21.0532C14.9416 21.145 14.9178 21.2036 14.8941 21.2938C14.8529 21.4411 14.481 22.5508 14.3734 22.6283C14.3433 22.5001 13.8115 21.4078 13.7845 21.2938C13.7007 21.316 13.6896 21.354 13.6389 21.4189L12.9536 22.2041C12.8903 22.269 12.8729 22.3007 12.8175 22.3624C12.7826 22.4004 12.7051 22.4954 12.6766 22.5159C12.5674 22.4906 12.4803 22.4257 12.3822 22.402C12.3822 22.1708 12.4993 21.4284 12.5167 21.1561C12.5278 20.9867 12.5626 20.8996 12.5626 20.7271L11.8377 20.9994C11.7206 21.0453 11.5955 21.088 11.4768 21.1355C11.3993 21.1656 11.165 21.2653 11.0922 21.2701C11.0416 21.1957 11.0115 21.1482 10.9624 21.0595C10.9149 20.9756 10.8659 20.9186 10.8421 20.8189C10.9735 20.6226 11.4547 20.1176 11.6161 19.9166C11.6794 19.8374 11.8361 19.6902 11.8614 19.5952C11.8203 19.5762 11.5829 19.5208 11.5211 19.505L10.4812 19.2343V18.7135L11.7712 17.694C11.7253 17.6322 10.8168 17.2001 10.7076 17.1731C10.7076 16.8929 10.7883 16.9024 11.2505 16.7204L11.9517 16.4275C11.9263 16.3294 11.7396 16.122 11.6699 16.0286C11.6161 15.9574 11.5765 15.9051 11.5243 15.8355C11.1349 15.3131 11.1254 15.5711 11.461 14.7131C11.5718 14.4281 12.1479 13.0271 12.3584 12.8736ZM15.323 9.65838C15.3958 9.70746 15.6285 9.99716 15.6918 10.0826C15.9704 10.4578 16.0733 10.5829 16.3439 11.0151C16.4421 11.1718 16.3724 11.2098 16.2426 11.5976L15.9799 12.3971C16.3487 12.3971 16.6922 12.4651 17.0657 12.4651L17.2699 12.967C17.3 13.0604 17.3174 13.0255 17.1987 13.2076C17.1084 13.3469 16.5086 14.2239 16.5006 14.3221L17.4646 14.6244C17.7716 14.7273 17.6988 14.5785 17.797 15.2434L17.8159 15.4872C17.8096 15.5505 17.7875 15.541 17.7526 15.5743C17.7241 15.6028 17.7115 15.6138 17.683 15.6407L16.7729 16.4275C16.7143 16.4703 16.6573 16.5051 16.6368 16.5858C16.7428 16.5937 17.7273 17.0417 17.9046 17.0829V17.5578C17.702 17.694 17.4788 17.8095 17.2667 17.9393C17.1591 18.0042 17.0546 18.0612 16.9517 18.123C16.8694 18.1736 16.6842 18.2623 16.6368 18.3288C16.6779 18.3905 16.8425 18.5077 16.9137 18.571C17.0103 18.6565 17.1005 18.7229 17.1971 18.8084L17.6165 19.1583C17.7542 19.2675 17.7748 19.2264 17.721 19.5936C17.702 19.7187 17.6846 19.7155 17.5706 19.7614C17.3965 19.8327 16.2917 20.2902 16.2062 20.2981C16.2284 20.3772 16.2664 20.3962 16.3329 20.4437L17.2382 21.1672C17.3205 21.2321 17.3079 21.2416 17.406 21.2938C17.3933 21.3461 17.3728 21.4885 17.3522 21.5345C17.3126 21.6263 16.8694 21.7846 16.765 21.8305L15.9356 22.1993C16.0147 22.3181 16.545 22.8199 16.6589 22.9909C16.0859 23.0384 16.04 23.0589 15.4148 23.0589C15.1568 23.0589 14.9606 23.032 14.7358 23.013C14.7865 22.9054 14.8339 22.7835 14.8846 22.6648C15.6554 20.8237 16.1382 18.4348 16.1382 16.4275C16.1382 14.7811 16.0986 14.0672 15.8707 12.4398C15.8454 12.2578 15.4307 9.89584 15.323 9.65838ZM14.6456 8.88902C14.8007 9.55549 15.0017 10.214 15.1268 10.8979L15.3626 12.177C15.475 12.7485 15.5304 13.3485 15.5921 13.9405C15.6222 14.2413 15.619 14.5928 15.657 14.8714C15.6871 15.0867 15.6855 15.818 15.6855 16.0872L15.6633 16.9483C15.6602 17.0671 15.6396 17.1019 15.6412 17.2412C15.6443 17.7161 15.4813 18.905 15.3784 19.3783L15.1648 20.3662C14.864 20.3662 14.6266 20.3519 14.3876 20.2838C13.3857 19.9973 12.8918 18.457 12.7399 17.5388C12.4376 15.7025 12.675 13.3374 13.0834 11.5834C12.8064 11.5185 12.7621 11.4536 12.6528 11.4251L12.4265 11.8303C12.3505 11.9617 12.273 12.0915 12.1907 12.2293C12.1068 12.3686 12.0308 12.4936 11.9532 12.625C11.9121 12.6931 11.8773 12.7548 11.8345 12.8229C11.7886 12.8941 11.7538 12.9385 11.7095 13.016C11.6873 13.0572 11.6731 13.0841 11.6541 13.1189L11.1175 14.3252C11.002 14.6434 10.869 14.9315 10.7614 15.2576C10.5984 15.7436 10.448 16.2201 10.3214 16.7204C10.1805 17.2871 10.0238 18.0343 10.0286 18.6454C10.0301 18.8195 10.0064 18.905 10.0143 19.0981C10.0286 19.4227 10.0523 19.7535 10.1156 20.0733C10.1821 20.4057 10.2976 20.7192 10.4227 21.0358C10.4797 21.1814 10.5715 21.3033 10.6459 21.4442C10.7139 21.5709 10.8247 21.7054 10.9149 21.8083C10.9751 21.878 10.9957 21.9112 11.0637 21.9777C11.7269 22.6347 12.3996 22.9924 13.3319 23.241C13.7434 23.3502 14.2277 23.4262 14.6741 23.4832C14.777 23.4959 14.8672 23.4864 14.9717 23.5022L15.5953 23.5338C16.3455 23.5338 17.2113 23.412 17.9442 23.2568C18.8226 23.0716 19.6821 22.7233 20.4244 22.231C20.9515 21.8811 21.3915 21.4537 21.7714 20.9503C22.5786 19.8802 22.9965 18.3747 22.9965 16.8803C22.9965 15.9494 22.9727 15.112 22.8192 14.2049C22.767 13.8962 22.7179 13.5939 22.6577 13.301C22.596 12.9923 22.5295 12.7153 22.4631 12.4113C22.357 11.9253 21.6764 9.50324 21.4801 9.09323C21.3219 9.1059 21.3155 9.16131 21.0275 9.16131V9.36394C20.9119 9.39085 20.8312 9.46209 20.7251 9.51433C20.6571 9.54915 20.6428 9.5634 20.5811 9.59823C20.5225 9.63147 20.4719 9.65205 20.4165 9.68213C20.4751 9.7692 20.8043 9.9275 20.9182 9.99399C21.0876 10.0937 21.0718 10.1127 21.0718 10.2932C21.0718 10.3692 20.2851 10.8283 20.2582 10.8362C20.282 10.9248 20.3627 10.9327 20.4387 10.9707C20.5827 11.0451 20.9483 11.2715 21.0955 11.3111C21.0575 11.4504 20.369 11.8462 20.2582 12.0124C20.4086 12.0931 20.5463 12.1786 20.6887 12.2609C20.76 12.3021 21.0955 12.4604 21.0955 12.5332C21.0955 12.8641 20.991 12.8261 20.6286 13.0635C20.494 13.1522 20.1094 13.3548 20.0319 13.4609L20.9467 13.9041C21.0275 13.939 20.9388 13.9136 21.0275 13.9374C21.0275 14.0529 21.0464 14.1748 20.9531 14.2477C20.9483 14.2508 20.8708 14.2967 20.8676 14.2983C20.6856 14.398 19.8039 14.8793 19.7375 14.9774C19.8704 15.0091 20.0319 15.1088 20.1569 15.1706L20.8913 15.522L20.8628 15.6977C20.8344 15.826 20.8154 15.799 20.6808 15.8545L19.6694 16.3135C19.5602 16.3658 19.3481 16.4291 19.2848 16.5178C19.4288 16.551 20.4576 16.9974 20.6191 17.0829C20.589 17.1462 20.5479 17.3409 20.5289 17.4233C20.3896 17.4549 20.2487 17.4977 20.1078 17.5436C19.9559 17.5942 19.8277 17.6306 19.6773 17.6797C19.5365 17.7272 19.3987 17.77 19.261 17.8079C19.1867 17.8285 19.1218 17.8523 19.0553 17.8728C18.9793 17.8966 18.897 17.9124 18.8321 17.9441C18.9287 18.0881 19.4937 18.5124 19.6631 18.6739L19.9638 18.9161C19.9211 18.9984 19.8024 19.182 19.7818 19.2564C19.3861 19.2564 19.041 19.2089 18.6501 19.2105C18.4855 19.2121 18.4142 19.1884 18.2655 19.1884C18.275 19.3008 18.438 19.6 18.4918 19.7092C18.5504 19.8248 18.7071 20.097 18.7181 20.23C18.6263 20.2506 18.525 20.3028 18.4158 20.3329C18.3209 20.3598 18.1214 20.382 18.0629 20.4105C18.0629 20.1873 18.1468 19.8548 18.18 19.6221L18.3129 18.3747C18.3209 18.2654 18.3288 18.0549 18.3462 17.9346L18.3794 17.0386C18.3794 15.3669 18.0423 13.2947 17.3221 11.8699C17.1987 11.623 17.091 11.3697 16.9486 11.1338C16.3946 10.2172 16.2569 10.0383 15.5668 9.21196C15.5114 9.14706 15.4465 9.09165 15.3863 9.02991C15.2866 8.93176 15.1062 8.72913 15.0065 8.66264C14.8988 8.82411 14.8324 8.84628 14.6456 8.88902Z" fill="#009846"/>
<path fill-rule="evenodd" clip-rule="evenodd" d="M6.65581 16.0412C6.65581 15.2434 6.74444 14.455 6.90431 13.8012C7.05942 13.1648 7.25252 12.5364 7.52318 11.9522L7.93629 11.1433C8.17688 10.7364 8.63431 10.0146 8.93662 9.69795C9.09649 9.53014 9.15347 9.43833 9.37823 9.21195C9.69479 8.89376 9.79767 8.78769 10.1696 8.46475C10.8771 7.84736 11.5941 7.44368 12.4267 7.03208C12.5597 6.96718 12.7164 6.90861 12.8572 6.85162C13.0013 6.79463 13.1421 6.73764 13.3004 6.6854C15.2235 6.05059 17.2052 5.96352 19.1663 6.51759C19.3214 6.56192 19.4702 6.60783 19.6332 6.66165C20.3249 6.89278 20.7016 7.07641 21.3141 7.40252C21.675 7.59565 22.0929 7.88377 22.4205 8.12914C22.8305 8.43625 22.9413 8.5724 23.2483 8.81777C23.3069 8.86526 23.3544 8.91908 23.4098 8.97449C24.3674 9.93224 25.0638 10.9533 25.6083 12.253C26.3997 14.1368 26.5675 16.3436 26.0705 18.3462C25.9897 18.6707 25.8979 18.9572 25.7935 19.2707C25.6114 19.8184 25.412 20.2047 25.154 20.7128L24.8169 21.2811C24.1901 22.3038 23.1486 23.3834 22.1641 24.0594C22.0913 24.1085 22.0676 24.1291 21.9868 24.1781C21.5737 24.4283 21.55 24.471 21.0498 24.7338C21.0197 24.7496 20.9912 24.767 20.9628 24.7829L20.643 24.938C20.5148 25.0029 20.3676 25.0599 20.2347 25.1185C20.165 25.1501 20.1001 25.1675 20.0242 25.2024C19.9418 25.2388 19.8817 25.2562 19.7915 25.2863C18.0979 25.8498 16.9171 25.9512 15.1634 25.7549C14.516 25.682 13.8101 25.4952 13.2102 25.2863L12.3444 24.9301C11.5245 24.5201 10.6445 23.9993 9.96545 23.3708L9.3434 22.7708C9.28642 22.7059 9.27376 22.6758 9.20728 22.6125C9.03001 22.4384 8.69446 21.9951 8.52826 21.7751C8.34466 21.5329 8.08983 21.1181 7.93313 20.8537C7.89039 20.7841 7.86982 20.7255 7.83183 20.6606C7.08316 19.3704 6.65581 17.5309 6.65581 16.0412ZM6.20312 15.7246C6.20312 16.8518 6.25536 17.5103 6.51494 18.5599C6.84733 19.8976 7.5216 21.3081 8.40322 22.375L8.68654 22.7249C8.78626 22.8357 8.89864 22.9449 8.99044 23.0558L9.88472 23.9043C10.1443 24.1211 10.4086 24.3317 10.6935 24.5217C11.7762 25.2404 12.9522 25.7754 14.2279 26.0572C15.654 26.3707 17.3682 26.4182 18.7959 26.0556L19.5477 25.8578C19.6427 25.8261 19.7123 25.8024 19.8026 25.7723C20.719 25.4683 21.5927 24.9966 22.3762 24.4758C22.5123 24.3855 22.6136 24.3032 22.7402 24.2066C23.2262 23.8441 23.701 23.4404 24.0888 22.975C24.1869 22.8579 24.3025 22.755 24.4022 22.6331C24.5969 22.3925 24.7852 22.1597 24.9609 21.9001C25.4088 21.24 25.7903 20.5577 26.0879 19.8121C26.2794 19.3308 26.4408 18.8401 26.5469 18.3256C26.5833 18.153 26.6276 17.9694 26.6561 17.8016L26.797 16.6523C26.8745 15.6946 26.7558 14.5833 26.5627 13.7426C26.3427 12.777 26.004 11.8287 25.507 10.9723C25.2775 10.5765 25.0306 10.1903 24.7551 9.82301C24.6586 9.69636 24.5795 9.59188 24.4813 9.46365L23.2151 8.17188L21.7383 7.1144C21.5959 7.02734 21.4787 6.96876 21.3315 6.88803C21.2524 6.8437 21.2018 6.81996 21.1242 6.77721C20.8646 6.62999 20.5164 6.4986 20.2283 6.38303C19.1789 5.96036 17.9349 5.69757 16.7731 5.69757C16.2001 5.69757 15.5812 5.71498 15.0336 5.79255C14.5097 5.86537 14.0143 5.97144 13.5157 6.12974C12.5454 6.44002 11.8157 6.78671 10.9468 7.31703C10.5653 7.54974 10.1981 7.82361 9.86415 8.11489C9.53018 8.40618 9.20412 8.70379 8.9018 9.0299C8.29559 9.68528 7.75744 10.4436 7.35699 11.243C7.10216 11.7559 6.91064 12.2324 6.7112 12.7691C6.67955 12.8514 6.65897 12.9385 6.63681 13.0113C6.583 13.1759 6.54659 13.3485 6.50069 13.5099C6.31076 14.1653 6.20312 15.0202 6.20312 15.7246Z" fill="#009846"/>
<path fill-rule="evenodd" clip-rule="evenodd" d="M21.1406 27.6307C21.1406 28.1769 21.4414 28.655 21.8877 28.8544C22.4908 29.1236 23.2363 28.8481 23.7364 28.598C24.3173 28.3067 25.1768 27.6276 25.5899 27.102C25.7893 26.8471 26.1344 26.32 26.1423 25.9796C26.318 26.0255 26.3021 26.1822 26.6852 26.1822C26.9099 26.1822 27.2518 25.8831 27.2518 25.6852C27.2518 25.5949 27.2407 25.6456 27.2028 25.6203C27.2028 25.6203 27.1236 25.5823 27.111 25.5759C26.6583 25.3242 26.5095 25.1026 26.2784 24.6657L26.8498 24.3997C27.0017 24.3047 27.1885 24.1116 27.1379 23.8963C26.7991 23.8172 26.3227 24.1338 25.9935 24.3364C25.4142 24.6926 25.21 24.8921 24.7304 25.2672C24.4772 25.4651 23.6763 26.168 23.6763 26.4545C23.6763 26.5891 23.9359 26.6144 24.2809 26.2677C24.3505 26.1981 24.4044 26.1458 24.474 26.0762C24.7447 25.8039 24.7637 25.7738 25.0834 25.5095C25.1657 25.4414 25.4728 25.2087 25.5551 25.1865C25.6105 25.3052 25.6453 25.6029 25.6453 25.7754C25.6453 26.6033 24.9884 27.2397 24.3901 27.6893C23.8235 28.1152 22.8564 28.5964 22.2438 27.9553C21.5173 27.1922 22.2454 26.1063 22.7994 25.5554L22.9878 25.3591C23.4404 24.9063 24.2334 24.2715 24.8222 23.9802C25.0612 23.8615 25.2876 23.7776 25.4458 23.5829C25.5076 23.5053 25.6215 23.3122 25.4728 23.2536C25.381 23.2172 25.1451 23.3201 25.0786 23.3533L24.1147 23.9058L23.5307 24.3396C23.4705 24.3839 23.4499 24.4029 23.3914 24.4488L22.4369 25.3052C21.8735 25.8656 21.1406 26.8535 21.1406 27.6307Z" fill="#009846"/>
<path fill-rule="evenodd" clip-rule="evenodd" d="M19.7818 28.5822C19.7818 28.7642 19.7739 29.399 19.8277 29.5099C19.6979 29.4798 19.652 29.4386 19.5396 29.3911C19.1408 29.2202 18.8179 29.0318 18.4475 28.8307L17.6783 28.3558C17.596 28.3004 17.5184 28.2529 17.4345 28.1912L16.4959 27.4788C16.2759 27.2999 15.9704 26.9754 15.7536 26.9754C15.418 26.9754 15.1838 27.0403 15.0017 27.3316C14.7121 27.7986 14.4193 29.0555 14.4193 29.6682C14.4193 30.0718 14.3544 30.6639 14.8039 30.6639C15.5652 30.6639 15.3753 30.4898 15.3911 29.2376C15.3927 29.1363 15.4164 28.9067 15.4307 28.8244C15.4987 28.4223 15.5557 28.1326 15.7314 27.7669C15.809 27.7875 15.79 27.797 15.8549 27.8477C15.9008 27.8841 15.9229 27.8999 15.9704 27.9347C16.0622 28.0044 16.1224 28.0566 16.2126 28.1231C16.3012 28.1896 16.3725 28.2387 16.4611 28.3036L17.6197 29.0714C17.6751 29.1046 17.7099 29.1204 17.7637 29.1521C18.294 29.4719 19.5412 30.189 20.1664 30.189C21.2047 30.189 20.6872 29.7853 20.6872 28.989C20.6872 27.5975 21.0037 27.026 21.0037 26.7253C21.0037 26.4878 20.7141 26.5226 20.5748 26.5226C20.1221 26.5226 20.043 26.9501 19.9496 27.3237C19.8625 27.6672 19.7818 28.1706 19.7818 28.5822Z" fill="#009846"/>
<path fill-rule="evenodd" clip-rule="evenodd" d="M18.1752 3.90869C18.1752 3.28971 18.7308 2.66441 19.4873 2.66441C20.0983 2.66441 20.3088 2.69132 20.8944 2.88762C21.5893 3.12033 22.2667 3.42585 22.7289 3.99575C23.3146 4.72238 22.941 5.96982 21.6827 5.96982H21.412C20.3484 5.96982 18.1752 5.1308 18.1752 3.90869ZM17.3379 3.68231C17.3379 4.46117 17.8903 4.99624 18.4553 5.37143C19.0331 5.75453 19.644 6.00782 20.3389 6.2057C21.3297 6.48748 23.0771 6.80567 23.6675 5.62155C23.9619 5.03424 23.829 4.47542 23.4712 3.97676C23.4333 3.92293 23.4095 3.90869 23.3652 3.85645C23.3193 3.8042 23.3146 3.78679 23.2623 3.73297C23.0502 3.51926 22.7574 3.29763 22.4978 3.14091C22.2604 2.99843 21.8631 2.80371 21.602 2.69923C20.5636 2.28447 18.9429 1.79531 17.9251 2.57259C17.6608 2.7768 17.3379 3.21847 17.3379 3.68231Z" fill="#009846"/>
<path fill-rule="evenodd" clip-rule="evenodd" d="M27.2515 18.9841C27.2515 19.0585 27.2926 19.1392 27.3195 19.1883C27.0584 19.3625 26.5139 20.3408 26.4047 20.583C26.0913 21.2811 25.6053 22.5856 26.0865 23.2948C26.3224 23.643 26.7877 23.7079 27.1486 23.4309C27.3876 23.2489 27.3844 23.2409 27.5522 23.0431C27.5823 23.0082 27.5997 22.9972 27.6297 22.9623C27.6804 22.9022 27.7215 22.8436 27.769 22.785C28.0508 22.4304 28.3024 22.0552 28.5763 21.6911C28.6237 21.6278 28.6681 21.5708 28.7171 21.5154C28.8343 21.3809 29.0527 21.0896 29.2426 21.0896C29.7697 21.0896 29.1002 22.3244 29.0321 22.4637C28.9656 22.5966 28.8168 22.842 28.7171 22.9417C28.3278 23.3328 28.0824 22.8388 27.826 23.271C27.4461 23.9137 28.0144 24.0451 28.505 24.3396C28.6997 24.4567 28.82 24.5169 28.9894 24.3443C29.1334 24.1987 29.2205 23.9881 29.2205 23.7602C29.2205 23.6589 28.8643 23.5006 28.8137 23.4895C28.8263 23.4357 29.1413 23.1016 29.2964 22.8183L29.5481 22.3465C29.6035 22.2278 29.6462 22.1328 29.6969 22.0188C29.8457 21.6769 30.2113 20.7065 29.8947 20.3693C29.6636 20.1239 29.3028 20.2347 29.0907 20.4168L28.8517 20.6526C28.7187 20.8141 28.6997 20.8046 28.4987 21.0706C28.4069 21.1925 28.3151 21.3064 28.2296 21.4331L27.701 22.1502C27.5601 22.3275 27.2894 22.7201 27.003 22.7201C26.5202 22.7201 26.4585 22.2753 26.4585 21.9048C26.4585 21.1782 26.9602 20.3075 27.4002 19.744C27.4746 19.649 27.5569 19.5888 27.6139 19.5049C27.7769 19.5429 27.9906 19.6981 28.2249 19.3704C28.2676 19.3102 28.3832 19.0759 28.3832 18.9841C28.3832 18.7846 28.1916 18.7308 28.0619 18.6501C27.902 18.5519 27.6836 18.1134 27.3812 18.5947C27.3306 18.6754 27.2515 18.8622 27.2515 18.9841Z" fill="#009846"/>
<path fill-rule="evenodd" clip-rule="evenodd" d="M6.45173 8.86684C6.45173 8.63413 6.5467 8.33493 6.54354 7.9835C6.54195 7.80936 6.57836 7.68113 6.56411 7.53233C6.55145 7.37719 6.54354 7.24263 6.54354 7.05583L7.40616 7.18722C7.72272 7.22046 8.00921 7.23629 8.35268 7.23629C8.27512 7.35344 8.13425 7.4595 8.02187 7.5624L7.20673 8.28428C7.11651 8.36026 7.04845 8.41409 6.95665 8.48849C6.86959 8.55973 6.53087 8.84626 6.45173 8.86684ZM6.18107 6.12816C5.99747 6.12816 5.70465 6.4321 5.70465 6.62524C5.70465 6.8247 5.95473 6.91177 5.95473 7.41835C5.95473 8.00724 5.92941 8.40459 5.83444 8.9729C5.82178 9.04889 5.79962 9.27843 5.77429 9.34176C5.73472 9.43991 5.3691 9.64412 5.28204 9.71061C5.2029 9.76918 5.10319 9.8325 5.04462 9.90374C4.90692 10.0731 4.89267 10.1301 4.93541 10.3153C4.96232 10.3217 4.99714 10.3375 5.00347 10.3375C5.16808 10.3375 5.4973 10.0985 5.61443 10.0209C5.53687 10.3565 5.32003 10.9169 5.18233 11.262C5.14909 11.3459 4.93066 11.786 5.13959 11.786C5.7553 11.786 6.13676 10.0003 6.28396 9.60296C6.32511 9.49215 6.3631 9.49056 6.4454 9.42566L7.01521 8.97607C7.08169 8.92383 7.13709 8.88109 7.20515 8.82568C7.4584 8.6183 8.07094 8.09906 8.27987 7.88693C8.3416 7.82519 8.3875 7.77928 8.44923 7.71754L8.65658 7.51649C8.98738 7.15872 8.87342 7.24263 9.30553 7.23788L9.93548 7.19039C10.6921 7.12231 10.9121 6.46693 10.5718 6.46693C10.1792 6.46693 9.93548 6.535 9.59834 6.535C9.64583 6.46376 9.6949 6.41469 9.75029 6.3482C10.002 6.04109 9.79936 5.70865 9.36567 6.14399C9.09501 6.41627 9.11242 6.56983 8.85126 6.55875L8.23872 6.535C8.06303 6.535 7.84935 6.50017 7.67366 6.48909C7.40933 6.47326 6.86959 6.38461 6.63059 6.31179C6.51663 6.27696 6.25072 6.12816 6.18107 6.12816Z" fill="#009846"/>
<path fill-rule="evenodd" clip-rule="evenodd" d="M26.6179 6.35455C26.5704 6.41787 25.9088 6.88012 25.7933 6.95611C25.4435 7.18882 24.5571 7.79513 24.2184 7.80304C24.1994 7.73022 23.9651 7.37087 23.7847 7.30438C23.7087 7.27589 23.6074 7.29014 23.6074 7.41836C23.6074 7.61308 23.8369 7.93285 23.9287 8.069L24.5381 8.93018C25.081 9.66472 25.5543 10.3233 26.17 10.9881L26.8173 11.5865C26.925 11.672 26.9962 11.7179 27.183 11.7179C27.2637 11.3681 26.9962 11.1686 26.6907 10.8979C26.1035 10.3787 25.9041 10.0937 25.4498 9.51274L24.7154 8.48217C25.0114 8.41252 25.5274 8.05158 25.8249 7.89328C25.8582 8.01676 26.8189 9.34019 26.8791 9.41934C26.9661 9.53649 27.1735 9.81669 27.3413 9.81669C27.3967 9.81669 27.4552 9.76445 27.4552 9.68213C27.4552 9.46208 26.9772 8.88585 26.8142 8.66897C26.7509 8.58507 26.7097 8.51384 26.6464 8.42993L26.1415 7.6669C26.2175 7.64632 26.3108 7.56875 26.3821 7.52126C26.4707 7.46269 26.5388 7.41995 26.6258 7.35979C26.7113 7.29963 26.7651 7.25847 26.8522 7.1999C26.9281 7.15083 27.0215 7.06376 27.1149 7.05584L28.0108 8.49167C28.1596 8.74021 28.2957 8.96501 28.4207 9.23571C28.5347 9.48425 28.6534 9.90851 28.9478 9.90851C29.4749 9.90851 27.6847 7.17457 27.5454 6.96561L26.8411 5.94929C26.295 5.22425 26.1146 5.5931 26.3409 5.95087C26.4327 6.0981 26.5388 6.20416 26.6179 6.35455Z" fill="#009846"/>
<path fill-rule="evenodd" clip-rule="evenodd" d="M10.2988 3.1615C10.2988 3.37363 10.4302 3.37996 10.6518 3.33405C11.0649 3.25015 10.8227 2.99686 11.0459 4.33929C11.1156 4.76355 11.2612 5.1514 11.4179 5.52975L11.5888 5.90176C11.4479 5.91285 11.22 5.97775 11.0918 6.01416C10.8876 6.07115 10.7974 6.09015 10.7072 6.2627C10.7863 6.41467 10.8085 6.39884 11 6.39884C11.5366 6.39884 13.5072 5.85586 14.0232 5.71022C14.3935 5.60573 15.071 5.39519 15.3986 5.23055C15.5237 5.16723 15.7373 5.07383 15.8371 4.98834C15.8909 4.94402 15.9194 4.92185 15.9732 4.87595C16.046 4.81579 16.133 4.69073 16.1837 4.61158C16.342 4.36462 16.3847 3.7963 16.0017 3.7963C15.3685 3.7963 15.4904 4.20157 15.4698 4.34879C15.4493 4.48652 15.4556 4.52293 15.4113 4.63216C15.3511 4.78571 15.1754 4.84429 15.0219 4.92027C14.8684 4.99784 14.7069 5.07066 14.5502 5.12765C14.1118 5.29071 13.1954 5.54716 12.6968 5.65006C12.6161 5.66747 12.4878 5.69122 12.4261 5.71971C12.2947 5.47117 12.0304 4.90444 11.9481 4.6369C11.7835 4.10183 11.7471 3.6095 11.7471 3.00319C11.8262 3.00161 12.0003 2.97312 12.07 2.9652C12.1871 2.94937 12.3074 2.95412 12.4087 2.93987C12.8044 2.88446 12.9817 2.61693 12.7474 2.52353C12.4119 2.39214 11.6031 2.62168 11.3039 2.69608C11.0807 2.75149 10.2988 2.9652 10.2988 3.1615Z" fill="#009846"/>
<path fill-rule="evenodd" clip-rule="evenodd" d="M11.3623 26.0921C11.3623 26.358 11.9495 26.4071 12.1189 26.4451C12.3658 26.4989 12.3611 26.4451 12.4133 26.6936C12.5447 27.3284 12.4576 27.8271 12.2139 28.4144C12.0793 28.7342 11.9005 28.9938 11.7469 29.2835C11.6298 29.274 11.4399 29.1458 11.3243 29.0967C11.2056 29.046 10.6152 28.769 10.6152 29.103C10.6152 29.3215 11.5807 29.6887 11.8245 29.7727C12.4133 29.9784 12.8723 30.1668 13.5133 30.1668C13.8315 30.1668 13.8742 29.8312 13.2664 29.7109L12.5842 29.6001C13.0797 28.8624 13.3535 28.3305 13.3535 27.4503C13.3535 27.2208 13.287 27.0561 13.287 26.8614L13.6384 27.0308C13.6954 27.0593 13.7064 27.064 13.7571 27.0925C14.5358 27.5358 14.6039 27.1321 14.205 26.8709C13.697 26.5353 13.0622 26.2915 12.475 26.1126C12.3943 26.0873 11.3623 25.7264 11.3623 26.0921Z" fill="#009846"/>
<path fill-rule="evenodd" clip-rule="evenodd" d="M3.12402 14.3442V14.5025C3.12402 14.8049 3.39792 15.0914 3.80322 15.0914C4.10403 15.0914 4.41434 14.8159 4.41434 14.5247V14.3664C4.41434 14.1067 4.11195 13.8012 3.84914 13.8012C3.6259 13.8012 3.4945 13.8044 3.33301 13.9643C3.24276 14.0545 3.12402 14.2176 3.12402 14.3442Z" fill="#009846"/>
<path fill-rule="evenodd" clip-rule="evenodd" d="M28.4941 14.3664V14.5247C28.4941 14.9901 29.1876 15.3146 29.5992 14.9062C29.9982 14.5088 29.7195 13.8012 29.1733 13.8012H29.0609C28.795 13.8012 28.4941 14.102 28.4941 14.3664Z" fill="#009846"/>
</svg>
