<svg width="91" height="32" viewBox="0 0 91 32" fill="none" xmlns="http://www.w3.org/2000/svg">
<path d="M13.4848 3.80798C13.4848 3.80798 13.3136 3.59291 15.8674 2.95284C18.4212 2.31277 21.1267 2.20295 23.7442 2.63312C26.3616 3.06329 28.8103 4.02016 30.8732 5.41898C32.9362 6.8178 34.5497 8.61539 35.571 10.6525C36.5924 12.6896 36.9898 14.9034 36.7282 17.0977C36.4666 19.2922 35.5542 21.3993 34.0714 23.2327C32.5887 25.066 30.5817 26.569 28.2281 27.6084L27.6544 26.6996L27.0083 25.7229C28.9866 24.8493 30.6736 23.5859 31.9198 22.0449C33.1661 20.5038 33.9332 18.7327 34.1531 16.8883C34.3729 15.0437 34.0389 13.183 33.1804 11.4707C32.3219 9.75837 30.9657 8.24743 29.2317 7.07165C27.4977 5.89588 25.4394 5.09159 23.2393 4.73C20.3753 3.97987 16.7004 4.73 16.7004 4.73L25.0042 18.6772V9.19413H27.1951V22.2584L25.1455 23.0893L13.4848 3.80798Z" fill="#CC9933"/>
<path d="M26.7688 28.2961C26.7688 28.2961 26.9401 28.5111 24.3862 29.1513C21.8324 29.7913 19.127 29.9011 16.5095 29.471C13.892 29.0407 11.4434 28.084 9.3804 26.685C7.31744 25.2863 5.70384 23.4887 4.68257 21.4516C3.66129 19.4145 3.26384 17.2006 3.52541 15.0063C3.787 12.8119 4.69953 10.7047 6.18221 8.87135C7.66487 7.03797 9.67191 5.53502 12.0255 4.49561L12.5992 5.40456L13.2453 6.38112C11.267 7.2548 9.57999 8.5181 8.33374 10.0591C7.08749 11.6002 6.32045 13.3714 6.10059 15.2158C5.88072 17.0603 6.2148 18.9211 7.07324 20.6334C7.93167 22.3456 9.28797 23.8566 11.022 25.0324C12.756 26.2081 14.8142 27.0124 17.0143 27.3741C19.8785 28.1242 23.5533 27.3741 23.5533 27.3741L15.2494 13.4268V22.9099H13.0586V9.84563L15.1081 9.01479L26.7688 28.2961Z" fill="#009966"/>
<path d="M41.6562 6.0166H42.8043L47.9408 12.3102H47.9695C47.9504 12.0853 47.9359 11.8448 47.9265 11.5889C47.9073 11.3718 47.893 11.1236 47.8834 10.8444C47.8834 10.5574 47.8834 10.2666 47.8834 9.9719V6.0166H49.0312V13.9505H47.8834L42.7469 7.63362H42.7181C42.7277 7.86629 42.742 8.11058 42.7612 8.36652C42.7707 8.59143 42.7803 8.84347 42.7898 9.12267C42.7994 9.40187 42.8043 9.68883 42.8043 9.98354V13.9505H41.6562V6.0166Z" fill="#009966"/>
<path d="M51.7051 6.0166H57.7025V6.91236H52.9103V9.4484H57.3581V10.3209H52.9103V13.0547H57.846V13.9505H51.7051V6.0166Z" fill="#009966"/>
<path d="M64.9565 7.11009C64.7269 7.06356 64.4878 7.02091 64.2391 6.98213C64.019 6.94336 63.7657 6.91233 63.4787 6.88907C63.2013 6.85805 62.9095 6.84253 62.6034 6.84253C61.8955 6.84253 61.3887 6.93172 61.0826 7.11009C60.7765 7.28071 60.6234 7.54828 60.6234 7.91279C60.6329 8.19974 60.7622 8.44404 61.0109 8.64569C61.2596 8.83957 61.5703 9.02182 61.9435 9.19244C62.3164 9.3553 62.723 9.51817 63.163 9.68105C63.6126 9.83616 64.0239 10.0184 64.397 10.2278C64.77 10.4294 65.0809 10.6699 65.3296 10.9491C65.5878 11.2205 65.717 11.554 65.717 11.9495C65.717 12.4071 65.5926 12.7755 65.3439 13.0547C65.1048 13.3339 64.7988 13.551 64.4256 13.7061C64.0527 13.8613 63.6413 13.966 63.1918 14.0202C62.7518 14.0746 62.3309 14.1017 61.9292 14.1017C61.5465 14.1017 61.1974 14.0823 60.8816 14.0436C60.566 14.0047 60.2934 13.9621 60.0638 13.9155C59.796 13.8613 59.5521 13.7992 59.332 13.7294L59.619 12.7871C59.8391 12.8647 60.0735 12.9306 60.3222 12.9849C60.5421 13.0314 60.786 13.0741 61.0538 13.1128C61.3313 13.1516 61.6231 13.171 61.9292 13.171C62.3021 13.171 62.6416 13.1516 62.9477 13.1128C63.2635 13.0741 63.5361 13.012 63.7657 12.9267C63.9953 12.8414 64.1721 12.729 64.2965 12.5894C64.4304 12.4498 64.4973 12.2791 64.4973 12.0775C64.4878 11.775 64.3634 11.5307 64.1244 11.3446C63.8948 11.1507 63.5839 10.9685 63.1918 10.7978C62.8092 10.6195 62.3929 10.4488 61.9435 10.286C61.5035 10.1231 61.0969 9.93698 60.7239 9.72758C60.3508 9.51817 60.0352 9.26999 59.7769 8.98304C59.5282 8.69609 59.4037 8.33934 59.4037 7.91279C59.4037 7.66461 59.4565 7.42031 59.5616 7.17989C59.6669 6.93947 59.8437 6.72619 60.0924 6.54006C60.3508 6.35393 60.6808 6.2027 61.0826 6.08637C61.4938 5.97004 62.0008 5.91187 62.6034 5.91187C62.9477 5.91187 63.273 5.92738 63.579 5.9584C63.8948 5.98166 64.1674 6.00882 64.397 6.03984C64.6648 6.07861 64.9182 6.12126 65.1574 6.1678L64.9565 7.11009Z" fill="#009966"/>
<path d="M49.1025 19.5811C48.6816 19.5112 48.2321 19.4454 47.7539 19.3833C47.2851 19.3213 46.7399 19.2824 46.1181 19.2669C45.4868 19.2748 44.9417 19.3523 44.4825 19.4996C44.0234 19.647 43.6456 19.8603 43.349 20.1395C43.062 20.4108 42.8468 20.7366 42.7034 21.1166C42.5598 21.4966 42.4881 21.9154 42.4881 22.373C42.4881 22.9624 42.5789 23.4665 42.7608 23.8854C42.9521 24.3042 43.2102 24.6492 43.5355 24.9207C43.8703 25.1844 44.2578 25.3782 44.6978 25.5023C45.1378 25.6264 45.6112 25.6885 46.1181 25.6885C46.4433 25.6885 46.7351 25.6729 46.9935 25.6419C47.2613 25.6109 47.4909 25.5761 47.6822 25.5373C47.883 25.4907 48.0648 25.4403 48.2273 25.3861V23.2572H49.4468V25.863C49.1121 26.0414 48.6482 26.2042 48.0551 26.3517C47.4717 26.4913 46.8259 26.5571 46.1181 26.5494C45.4677 26.5494 44.8412 26.4873 44.2386 26.3633C43.6456 26.2392 43.1146 26.022 42.646 25.7118C42.1868 25.3937 41.8185 24.9634 41.541 24.4205C41.2637 23.8776 41.125 23.1912 41.125 22.3614C41.125 21.6866 41.2541 21.1011 41.5124 20.6048C41.7706 20.1006 42.1198 19.6857 42.5598 19.36C43.0095 19.0266 43.526 18.7784 44.1094 18.6155C44.7024 18.4449 45.3291 18.3596 45.989 18.3596C46.4195 18.3596 46.8356 18.3789 47.2373 18.4178C47.6391 18.4488 48.0074 18.4875 48.3421 18.534C48.677 18.5729 48.9974 18.6233 49.3035 18.6853L49.1025 19.5811Z" fill="#009966"/>
<path d="M59.5859 22.4312C59.5859 21.679 59.7295 21.043 60.0165 20.5233C60.3129 20.0038 60.686 19.585 61.1355 19.2669C61.5947 18.949 62.1017 18.7201 62.6565 18.5805C63.2208 18.4333 63.7709 18.3596 64.3066 18.3596C64.8422 18.3596 65.3874 18.4217 65.9421 18.5458C66.5066 18.662 67.0135 18.8753 67.4631 19.1855C67.9223 19.488 68.2952 19.9029 68.5822 20.4303C68.8788 20.9576 69.027 21.6285 69.027 22.4428C69.027 23.2028 68.8788 23.8427 68.5822 24.3623C68.2952 24.8819 67.9223 25.3046 67.4631 25.6303C67.0135 25.9561 66.5066 26.1926 65.9421 26.3399C65.3874 26.4795 64.8422 26.5494 64.3066 26.5494C63.7709 26.5494 63.2208 26.4795 62.6565 26.3399C62.1017 26.2003 61.5947 25.9716 61.1355 25.6537C60.686 25.3356 60.3129 24.9129 60.0165 24.3855C59.7295 23.8582 59.5859 23.2067 59.5859 22.4312ZM67.6639 22.4893C67.6639 21.4424 67.3626 20.6474 66.7601 20.1045C66.1671 19.5616 65.3682 19.2903 64.364 19.2903C63.8569 19.2903 63.3929 19.3561 62.9721 19.488C62.5608 19.6121 62.2022 19.8021 61.8961 20.058C61.5995 20.314 61.3651 20.6358 61.1929 21.0236C61.0304 21.4035 60.949 21.8533 60.949 22.373C60.949 23.4199 61.2457 24.2227 61.8387 24.7811C62.4412 25.3395 63.2447 25.6187 64.2492 25.6187C64.7466 25.6187 65.2057 25.5567 65.6266 25.4326C66.0475 25.3007 66.4061 25.103 66.7027 24.8393C67.0088 24.5756 67.243 24.2499 67.4057 23.8621C67.5779 23.4743 67.6639 23.0167 67.6639 22.4893Z" fill="#009966"/>
<path d="M72.2951 18.4644V23.42C72.2951 23.8622 72.3716 24.2267 72.5246 24.5136C72.6872 24.7928 72.8976 25.0139 73.156 25.1767C73.4141 25.3396 73.7059 25.4521 74.0311 25.5141C74.3658 25.5762 74.7055 25.6072 75.0499 25.6072C75.3942 25.6072 75.729 25.5762 76.0542 25.5141C76.3794 25.4521 76.6712 25.3396 76.9295 25.1767C77.1877 25.0139 77.3933 24.7928 77.5464 24.5136C77.6994 24.2267 77.7759 23.8622 77.7759 23.42V18.4644H78.9812V23.6644C78.9812 24.0677 78.8855 24.4439 78.6942 24.7928C78.5125 25.1419 78.2495 25.4482 77.9052 25.7119C77.5608 25.9677 77.1446 26.1694 76.6569 26.3168C76.169 26.4641 75.6286 26.5379 75.0356 26.5379C73.7633 26.5379 72.7876 26.2897 72.1084 25.7933C71.4294 25.2892 71.0898 24.5796 71.0898 23.6644V18.4644H72.2951Z" fill="#009966"/>
<path d="M81.5717 26.3691L81.5 18.4585L83.7598 18.4294C84.9435 18.4294 85.5414 18.5844 85.9838 18.7202C86.6653 18.9238 87.8991 19.744 87.3826 21.3958C86.8661 23.0478 84.7762 23.325 83.7957 23.2571V22.4138C85.8761 22.3266 86.3425 21.8322 86.3425 20.5815C86.3425 19.2437 84.0109 19.1856 82.7912 19.3309V26.3691H81.5717Z" fill="#009966"/>
<path d="M51.7285 26.3979V18.4583C52.2187 18.4583 53.7014 18.4583 55.1003 18.4583C57.2166 18.5456 57.8264 18.5747 58.4003 19.4472C58.7064 19.9125 58.8317 20.8721 58.5439 21.6574C58.0416 22.7625 56.1763 22.9079 55.7101 23.0243L58.7948 26.3979H57.396L54.5623 23.257V22.3845C54.9449 22.3747 56.7861 22.2623 57.2166 21.6574C57.4856 21.2793 57.7645 20.5522 57.2166 19.8542C56.8202 19.3491 55.6024 19.3598 54.5623 19.3598H52.9481V26.3979H51.7285Z" fill="#009966"/>
<path d="M68.3956 9.81824V10.0371V13.9395H67.1211V5.97656H68.3956V9.81824Z" fill="#009966"/>
<path d="M73.8372 5.97449L70.0737 9.82832L74.2271 13.9375H72.5927L68.7542 9.8851L72.4128 5.97449H73.8372Z" fill="#009966"/>
</svg>
