<svg width="85" height="24" viewBox="0 0 85 24" fill="none" xmlns="http://www.w3.org/2000/svg">
<path d="M70.7816 14.7885C69.5132 14.6964 68.3856 14.1893 67.446 13.2214C66.4125 12.1613 65.8487 10.9168 65.8487 9.44183C65.8487 7.96688 66.3655 6.72239 67.446 5.66226C68.4796 4.60214 69.748 4.04903 71.2514 4.04903C72.4259 4.04903 73.6004 4.04903 74.7749 4.04903C75.2917 4.04903 75.7145 3.86467 76.0903 3.54202C76.4662 3.17328 76.6071 2.75845 76.6071 2.25144V0.546021H71.2514C68.7615 0.546021 66.6004 1.42177 64.7682 3.17328C62.9829 4.92479 62.0903 6.99894 62.0903 9.48792C62.0903 11.9769 62.9829 14.0511 64.7682 15.7565C66.4595 17.3697 68.4326 18.2455 70.7346 18.3376C71.4863 21.2875 74.2581 23.5 77.4997 23.5C81.3521 23.5 84.4997 20.4118 84.4997 16.6322C84.4997 12.8527 81.3521 9.76448 77.4997 9.76448C74.3051 9.76448 71.5803 11.8847 70.7816 14.7885ZM73.7883 14.8346C72.9427 14.8346 72.0031 14.8346 71.5333 14.8346H71.4863C72.097 12.8066 73.7413 11.2394 75.8554 10.6863V14.8346H73.7883ZM79.4259 10.7785C81.3521 11.3777 82.9024 12.8988 83.5131 14.8346H79.4259V10.7785ZM75.8554 22.5781C73.7413 22.025 72.097 20.4118 71.4863 18.3837H75.8554C75.8554 19.7665 75.8554 21.1954 75.8554 22.5781ZM79.4259 18.3837H83.5131C82.9494 20.3196 81.3991 21.8867 79.4259 22.532V18.3837Z" fill="#C1070C"/>
<path d="M4.07096 11.6543V9.44192V3.91084H7.82935C8.76894 3.95694 9.47364 4.27958 9.94344 4.7866C10.4602 5.43189 10.6951 6.35373 10.6951 7.69041V18.2455H12.4804C12.9971 18.2455 13.42 18.0612 13.7488 17.6924C14.0777 17.3237 14.2656 16.8628 14.2656 16.4019V7.32167C14.2656 5.24752 13.6549 3.63429 12.4804 2.57417C11.4938 1.60623 10.0374 1.09921 8.11123 0.960938C7.78237 0.960938 7.45351 0.960938 7.12465 0.960938H4.07096H0.500488V3.95694V7.36776V11.7004V18.3377H4.07096V11.6543Z" fill="#1454A6"/>
<path d="M18.9635 9.4419C18.9635 11.3317 19.3864 12.8066 20.232 13.7746C21.0776 14.7886 22.2521 15.2956 23.8025 15.2956C25.3058 15.2956 26.4803 14.7886 27.3729 13.7746C28.2186 12.7145 28.6884 11.2856 28.6884 9.4419C28.6884 7.59821 28.2655 6.16935 27.3729 5.06314C26.5273 4.04911 25.3058 3.54209 23.8025 3.54209C22.2521 3.54209 21.0776 4.04911 20.232 5.06314C19.3394 6.07717 18.9635 7.55212 18.9635 9.4419ZM15.3931 9.4419C15.3931 6.67637 16.1447 4.51003 17.6011 2.8968C19.1515 1.28357 21.2186 0.5 23.7555 0.5C26.2454 0.5 28.3125 1.28357 29.9098 2.8968C31.4132 4.55612 32.1649 6.72246 32.1649 9.4419C32.1649 12.1613 31.4132 14.3277 29.9098 15.9409C28.3595 17.5081 26.3394 18.2916 23.7555 18.2916C21.1246 18.2916 19.1045 17.5081 17.6011 15.9409C16.1447 14.3738 15.3931 12.2074 15.3931 9.4419Z" fill="#1454A6"/>
<path d="M37.3331 1.00708L31.3667 17.8769H35.313L38.9774 5.24757L42.313 16.6324C42.5009 17.462 43.0647 17.923 44.0043 17.923H46.5412L40.7157 1.00708H37.3331Z" fill="#1454A6"/>
<path d="M47.6206 17.8768V2.75852C47.6206 2.25151 47.8085 1.83668 48.1374 1.51403C48.4662 1.19138 48.936 1.00702 49.4058 1.00702H51.1441V7.73649H53.3052C53.5401 5.80061 54.2448 4.18738 55.4193 2.94289C56.9696 1.28357 59.0367 0.5 61.5736 0.5C63.4528 0.5 65.0971 0.960923 66.4595 1.83668C66.9293 2.15932 67.3521 2.48197 67.728 2.8968C68.1978 3.40381 68.5736 3.95692 68.9025 4.60221C69.6072 5.93889 69.983 7.59821 69.983 9.4419C69.983 11.3317 69.6072 12.9449 68.9025 14.2816C68.3857 14.005 67.8689 13.6824 67.3991 13.2215C66.8823 12.6684 66.4595 12.1153 66.1777 11.47C66.3186 10.8708 66.4126 10.1794 66.4126 9.4419C66.4126 8.70443 66.3656 8.05913 66.2246 7.45994C66.0367 6.53809 65.6609 5.75452 65.1441 5.06314C64.7683 4.64831 64.3924 4.32566 63.9226 4.0952C63.2649 3.72646 62.4662 3.54209 61.5736 3.54209C60.0233 3.54209 58.8488 4.04911 58.0032 5.06314C57.1575 6.07717 56.7347 7.55212 56.7347 9.4419C56.7347 11.3317 57.1575 12.8066 58.0032 13.7746C58.8488 14.7886 60.0233 15.2956 61.5736 15.2956C62.4662 15.2956 63.2179 15.1113 63.8756 14.7886C64.1575 15.1113 64.4394 15.48 64.7683 15.7565C65.285 16.2636 65.8018 16.6784 66.3656 17.001C65.0501 17.8307 63.4058 18.2455 61.5266 18.2455C58.8958 18.2455 56.8756 17.462 55.3723 15.8948C54.2448 14.6503 53.5401 13.0832 53.2582 11.1473H51.0971V17.8768H47.6206Z" fill="#1454A6"/>
</svg>
