<svg width="115" height="20" viewBox="0 0 115 20" fill="none" xmlns="http://www.w3.org/2000/svg">
<g clip-path="url(#clip0_33_3126)">
<path fill-rule="evenodd" clip-rule="evenodd" d="M62.7378 13.1468C63.5908 12.2976 64.0186 11.2195 64.0186 9.91241V8.00015C64.0186 6.69805 63.5881 5.61995 62.7277 4.77097C61.8674 3.91933 60.7506 3.49359 59.3801 3.49359C57.9996 3.49359 56.8802 3.91933 56.0224 4.77097C55.1641 5.61995 54.7368 6.69805 54.7368 8.00015V9.91241C54.7368 11.2195 55.1668 12.2976 56.0277 13.1468C56.8881 13.9957 58.0096 14.419 59.3954 14.4215C60.7712 14.419 61.8848 13.9957 62.7378 13.1468ZM60.9373 6.12036C61.3061 6.60585 61.4881 7.22836 61.4881 7.9878V9.91241C61.4881 10.6818 61.3061 11.3067 60.9426 11.7947C60.576 12.2803 60.0616 12.5243 59.3954 12.5243C58.7117 12.5243 58.1842 12.2803 57.8155 11.7947C57.4488 11.3067 57.2647 10.6818 57.2647 9.91241V7.9878C57.2647 7.22333 57.4467 6.59851 57.8075 6.11533C58.1715 5.63231 58.6964 5.39098 59.3801 5.39098C60.0511 5.39098 60.5712 5.63231 60.9373 6.12036ZM24.3755 12.2174H27.6231L28.2608 14.2814H30.9322L27.3619 3.65986H26.0044L25.9966 3.66721V3.65986H24.6368L21.0741 14.2814H23.7454L24.3755 12.2174ZM27.0392 10.3202H24.9594L25.9736 7.02349H26.0173L27.0392 10.3202ZM34.2201 14.2814V10.6413H35.8567C37.1527 10.6413 38.1798 10.3227 38.9404 9.68282C39.701 9.04277 40.0802 8.20133 40.0802 7.15559C40.0802 6.1099 39.701 5.26574 38.9404 4.6234C38.1798 3.98104 37.1527 3.65986 35.8567 3.65986H31.6843V14.2814H34.2201ZM35.8567 8.74415H34.2201V5.55703H35.8567C36.4125 5.55703 36.8324 5.70903 37.1194 6.01021C37.4087 6.31149 37.5522 6.69749 37.5522 7.17046C37.5522 7.63113 37.4063 8.00959 37.1168 8.30339C36.8275 8.59718 36.4074 8.74415 35.8567 8.74415ZM47.2695 11.0945H47.3132L49.7821 3.65986H53.1374V14.2814H50.6016V7.43939L50.5556 7.43185L48.148 14.2814H46.4449L44.0808 7.5341L44.0347 7.54144V14.2814H41.4992V3.65986H44.8237L47.2695 11.0945ZM22.6797 17.4607C22.8844 17.5098 23.0452 17.5992 23.1624 17.7288C23.2794 17.8586 23.3379 18.0141 23.3379 18.1956C23.3379 18.3715 23.2816 18.5256 23.1691 18.6583C23.0563 18.7909 22.9065 18.8924 22.7198 18.9631C22.533 19.0337 22.3299 19.069 22.1105 19.069C21.903 19.069 21.6992 19.0366 21.4991 18.9717C21.2989 18.907 21.1188 18.8096 20.9587 18.6799L21.0788 18.4508C21.2152 18.5632 21.3707 18.6489 21.5458 18.7081C21.7207 18.7672 21.897 18.7966 22.075 18.7966C22.2441 18.7966 22.3995 18.7707 22.5419 18.7187C22.6842 18.6669 22.7976 18.5928 22.8821 18.4963C22.9667 18.3995 23.0089 18.285 23.0089 18.1525C23.0089 17.9767 22.9376 17.8412 22.7954 17.746C22.6531 17.651 22.4529 17.6033 22.195 17.6033H21.5279V17.344H22.1772C22.3966 17.344 22.5679 17.2986 22.6909 17.2078C22.8139 17.117 22.8754 16.9909 22.8754 16.8295C22.8754 16.6508 22.7969 16.5104 22.6397 16.408C22.4827 16.3056 22.2855 16.2545 22.0483 16.2545C21.9001 16.2545 21.7502 16.2754 21.599 16.3173C21.4479 16.359 21.3041 16.4217 21.1676 16.5053L21.0565 16.2416C21.3649 16.0629 21.6984 15.9735 22.0571 15.9735C22.2676 15.9735 22.4603 16.0066 22.6353 16.0729C22.8103 16.1392 22.9488 16.2345 23.0512 16.3582C23.1534 16.4822 23.2046 16.6278 23.2046 16.795C23.2046 16.9563 23.1586 17.0954 23.0667 17.2122C22.9747 17.3289 22.8459 17.4118 22.6797 17.4607ZM24.4132 18.2475H26.1477L26.5212 19.0559H26.8681L25.445 16.0296H25.1204L23.6973 19.0559H24.0397L24.4132 18.2475ZM25.2805 16.3625L26.0276 17.9882H24.5333L25.2805 16.3625ZM29.3118 17.4953C29.5283 17.5385 29.6927 17.6229 29.8054 17.7482C29.9181 17.8735 29.9745 18.0371 29.9745 18.2388C29.9745 18.5011 29.8788 18.703 29.6876 18.8441C29.4963 18.9854 29.2154 19.0559 28.8448 19.0559H27.4662V16.0296H28.7603C29.0924 16.0296 29.3518 16.096 29.5386 16.2286C29.7253 16.3612 29.8188 16.5528 29.8188 16.8036C29.8188 16.9736 29.7743 17.117 29.6853 17.2337C29.5963 17.3505 29.4719 17.4376 29.3118 17.4953ZM27.7907 17.4001H28.7426C28.9826 17.4001 29.1673 17.3526 29.2961 17.2574C29.4252 17.1624 29.4896 17.0241 29.4896 16.8426C29.4896 16.6608 29.4252 16.5225 29.2961 16.4273C29.1673 16.3323 28.9826 16.2847 28.7426 16.2847H27.7907V17.4001ZM28.8448 18.8009C29.3814 18.8009 29.6497 18.6063 29.6497 18.2173C29.6497 17.8368 29.3814 17.6466 28.8448 17.6466H27.7907V18.8009H28.8448ZM31.3432 18.8507C31.5937 18.9846 31.8731 19.0516 32.1815 19.0516C32.4899 19.0516 32.7677 18.9854 33.0153 18.8528C33.2628 18.7202 33.4578 18.5365 33.6001 18.3017C33.7424 18.0667 33.8135 17.8036 33.8135 17.5127C33.8135 17.2215 33.7424 16.9585 33.6001 16.7236C33.4578 16.4887 33.2628 16.3049 33.0153 16.1723C32.7677 16.0398 32.4899 15.9735 32.1815 15.9735C31.8731 15.9735 31.5937 16.0405 31.3432 16.1745C31.0925 16.3086 30.897 16.4923 30.7561 16.7256C30.6153 16.9591 30.5448 17.2215 30.5448 17.5127C30.5448 17.8036 30.6153 18.066 30.7561 18.2993C30.897 18.5328 31.0925 18.7166 31.3432 18.8507ZM32.8486 18.6042C32.6498 18.7124 32.4275 18.7663 32.1815 18.7663C31.9354 18.7663 31.7122 18.7124 31.5121 18.6042C31.3121 18.4961 31.1549 18.3463 31.0408 18.1545C30.9266 17.963 30.8695 17.749 30.8695 17.5127C30.8695 17.2763 30.9266 17.0622 31.0408 16.8706C31.1549 16.6789 31.3121 16.5291 31.5121 16.421C31.7122 16.3129 31.9354 16.2588 32.1815 16.2588C32.4275 16.2588 32.6498 16.3129 32.8486 16.421C33.0472 16.5291 33.2029 16.6789 33.3154 16.8706C33.4281 17.0622 33.4845 17.2763 33.4845 17.5127C33.4845 17.749 33.4281 17.963 33.3154 18.1545C33.2029 18.3463 33.0472 18.4961 32.8486 18.6042ZM37.4162 18.7793V19.7347H37.1093V19.0561H34.3922L34.3877 19.7347H34.0809L34.0853 18.7793H34.241C34.4454 18.7678 34.5879 18.61 34.668 18.306C34.748 18.0018 34.7968 17.5703 34.8147 17.0111L34.8502 16.0296H36.9492V18.7793H37.4162ZM35.1081 17.0413C35.0934 17.5025 35.0571 17.8823 34.9992 18.1806C34.9413 18.4789 34.8442 18.6785 34.708 18.7793H36.6247V16.3064H35.1348L35.1081 17.0413ZM39.536 17.6681H40.2477L41.3461 19.0559H41.7242L40.5011 17.4996L41.6574 16.0296H41.3017L40.2477 17.3872H39.536V16.0296H39.2159V19.0559H39.536V17.6681ZM43.5931 19.0516C43.2847 19.0516 43.0054 18.9846 42.7548 18.8507C42.5044 18.7166 42.3087 18.5328 42.1677 18.2993C42.0269 18.066 41.9566 17.8036 41.9566 17.5127C41.9566 17.2215 42.0269 16.9591 42.1677 16.7256C42.3087 16.4923 42.5044 16.3086 42.7548 16.1745C43.0054 16.0405 43.2847 15.9735 43.5931 15.9735C43.9015 15.9735 44.1793 16.0398 44.4269 16.1723C44.6745 16.3049 44.8695 16.4887 45.0117 16.7236C45.154 16.9585 45.2251 17.2215 45.2251 17.5127C45.2251 17.8036 45.154 18.0667 45.0117 18.3017C44.8695 18.5365 44.6745 18.7202 44.4269 18.8528C44.1793 18.9854 43.9015 19.0516 43.5931 19.0516ZM43.5931 18.7663C43.8392 18.7663 44.0615 18.7124 44.2602 18.6042C44.4588 18.4961 44.6145 18.3463 44.7272 18.1545C44.8398 17.963 44.8961 17.749 44.8961 17.5127C44.8961 17.2763 44.8398 17.0622 44.7272 16.8706C44.6145 16.6789 44.4588 16.5291 44.2602 16.421C44.0615 16.3129 43.8392 16.2588 43.5931 16.2588C43.3471 16.2588 43.1239 16.3129 42.9237 16.421C42.7238 16.5291 42.5666 16.6789 42.4525 16.8706C42.3382 17.0622 42.2812 17.2763 42.2812 17.5127C42.2812 17.749 42.3382 17.963 42.4525 18.1545C42.5666 18.3463 42.7238 18.4961 42.9237 18.6042C43.1239 18.7124 43.3471 18.7663 43.5931 18.7663ZM49.2986 19.0559V16.0296H49.0273L47.6888 18.2734L46.3368 16.0296H46.0655V19.0559H46.3813V16.648L47.6042 18.6712H47.7599L48.9829 16.6349V19.0559H49.2986ZM52.9074 16.0296V19.0559H52.5825V16.3064H50.6125V19.0559H50.2878V16.0296H52.9074ZM54.5105 18.8507C54.7611 18.9846 55.0407 19.0516 55.3493 19.0516C55.6574 19.0516 55.9354 18.9854 56.1828 18.8528C56.4307 18.7202 56.6254 18.5365 56.7678 18.3017C56.9102 18.0667 56.9814 17.8036 56.9814 17.5127C56.9814 17.2215 56.9102 16.9585 56.7678 16.7236C56.6254 16.4887 56.4307 16.3049 56.1828 16.1723C55.9354 16.0398 55.6574 15.9735 55.3493 15.9735C55.0407 15.9735 54.7611 16.0405 54.5105 16.1745C54.2605 16.3086 54.0648 16.4923 53.9239 16.7256C53.7831 16.9591 53.7124 17.2215 53.7124 17.5127C53.7124 17.8036 53.7831 18.066 53.9239 18.2993C54.0648 18.5328 54.2605 18.7166 54.5105 18.8507ZM56.0161 18.6042C55.8177 18.7124 55.5951 18.7663 55.3493 18.7663C55.1029 18.7663 54.8798 18.7124 54.6799 18.6042C54.4799 18.4961 54.3227 18.3463 54.2083 18.1545C54.0943 17.963 54.0373 17.749 54.0373 17.5127C54.0373 17.2763 54.0943 17.0622 54.2083 16.8706C54.3227 16.6789 54.4799 16.5291 54.6799 16.421C54.8798 16.3129 55.1029 16.2588 55.3493 16.2588C55.5951 16.2588 55.8177 16.3129 56.0161 16.421C56.2149 16.5291 56.3706 16.6789 56.4829 16.8706C56.5958 17.0622 56.6523 17.2763 56.6523 17.5127C56.6523 17.749 56.5958 17.963 56.4829 18.1545C56.3706 18.3463 56.2149 18.4961 56.0161 18.6042ZM58.9697 17.4607C59.1744 17.5098 59.3352 17.5992 59.4524 17.7288C59.5695 17.8586 59.628 18.0141 59.628 18.1956C59.628 18.3715 59.5716 18.5256 59.4587 18.6583C59.3463 18.7909 59.1965 18.8924 59.0098 18.9631C58.823 19.0337 58.6199 19.069 58.4005 19.069C58.1932 19.069 57.989 19.0366 57.7891 18.9717C57.5891 18.907 57.4087 18.8096 57.2484 18.6799L57.3686 18.4508C57.5053 18.5632 57.6609 18.6489 57.8355 18.7081C58.0106 18.7672 58.1868 18.7966 58.3646 18.7966C58.5339 18.7966 58.6896 18.7707 58.832 18.7187C58.9744 18.6669 59.0878 18.5928 59.1722 18.4963C59.2566 18.3995 59.2988 18.285 59.2988 18.1525C59.2988 17.9767 59.2276 17.8412 59.0852 17.746C58.9433 17.651 58.7428 17.6033 58.4849 17.6033H57.8181V17.344H58.4675C58.6864 17.344 58.8578 17.2986 58.9808 17.2078C59.1042 17.117 59.1654 16.9909 59.1654 16.8295C59.1654 16.6508 59.0868 16.5104 58.9296 16.408C58.7724 16.3056 58.5756 16.2545 58.3382 16.2545C58.19 16.2545 58.0402 16.2754 57.8893 16.3173C57.7379 16.359 57.5939 16.4217 57.4578 16.5053L57.3465 16.2416C57.6551 16.0629 57.9885 15.9735 58.3472 15.9735C58.5577 15.9735 58.7502 16.0066 58.9254 16.0729C59.1 16.1392 59.2387 16.2345 59.341 16.3582C59.4434 16.4822 59.4946 16.6278 59.4946 16.795C59.4946 16.9563 59.4487 17.0954 59.3569 17.2122C59.2646 17.3289 59.1358 17.4118 58.9697 17.4607ZM60.7675 16.0296H60.4425V19.0559H60.7406L62.733 16.5528V19.0559H63.0574V16.0296H62.7594L60.7675 18.5371V16.0296ZM66.1535 16.3064H65.0594V19.0559H64.7344V16.3064H63.6409V16.0296H66.1535V16.3064ZM69.3213 19.0559V16.0296H68.9963V17.3785H67.0487V16.0296H66.7195V19.0559H67.0487V17.6596H68.9963V19.0559H69.3213ZM71.6756 17.1105C72.0433 17.1105 72.3244 17.1913 72.5186 17.3526C72.7127 17.5139 72.8098 17.7503 72.8098 18.0616C72.8098 18.3873 72.7069 18.6345 72.5006 18.803C72.2949 18.9715 71.9974 19.0559 71.6091 19.0559H70.3726V16.0296H70.6976V17.1105H71.6756ZM71.6002 18.8009C71.8877 18.8009 72.1066 18.7389 72.2564 18.615C72.4057 18.491 72.4806 18.308 72.4806 18.0659C72.4806 17.602 72.1873 17.3698 71.6002 17.3698H70.6976V18.8009H71.6002ZM73.3478 16.0296H73.6728V19.0559H73.3478V16.0296ZM75.7096 17.2272L74.8244 16.0296H74.4461L75.5091 17.4953L74.3665 19.0559H74.7442L75.7096 17.7547L76.6744 19.0559H77.0611L75.9137 17.4823L76.9767 16.0296H76.59L75.7096 17.2272ZM82.0483 16.0296V19.0559H81.7323V16.6349L80.5095 18.6712H80.3539L79.1311 16.648V19.0559H78.8151V16.0296H79.0868L80.4383 18.2734L81.7771 16.0296H82.0483ZM83.4114 18.2475H85.1459L85.5194 19.0559H85.866L84.4432 16.0296H84.1183L82.6955 19.0559H83.0379L83.4114 18.2475ZM84.2786 16.3625L85.0256 17.9882H83.5317L84.2786 16.3625ZM88.291 16.3064H87.1969V19.0559H86.8719V16.3064H85.7779V16.0296H88.291V16.3064ZM91.0621 19.0559V18.7793H89.1899V17.6553H90.7999V17.3829H89.1899V16.3064H90.9956V16.0296H88.8607V19.0559H91.0621ZM92.9912 16.0296C93.3884 16.0296 93.6997 16.1218 93.9249 16.3064C94.1507 16.4908 94.2631 16.7445 94.2631 17.0672C94.2631 17.3901 94.1507 17.6429 93.9249 17.8259C93.6997 18.009 93.3884 18.1006 92.9912 18.1006H92.1551V19.0559H91.8259V16.0296H92.9912ZM92.9822 17.8194C93.2903 17.8194 93.5261 17.754 93.6891 17.6229C93.8527 17.4916 93.9339 17.3065 93.9339 17.0672C93.9339 16.8223 93.8527 16.6343 93.6891 16.503C93.5261 16.3719 93.2903 16.3064 92.9822 16.3064H92.1551V17.8194H92.9822ZM95.2337 16.0296H94.9088V19.0559H95.2068L97.1993 16.5528V19.0559H97.5237V16.0296H97.2256L95.2337 18.5371V16.0296ZM100.553 18.2475H98.8188L98.4453 19.0559H98.1029L99.5256 16.0296H99.8506L101.274 19.0559H100.927L100.553 18.2475ZM100.433 17.9882L99.686 16.3625L98.939 17.9882H100.433ZM104.33 19.0559V16.0296H102.217L102.173 17.3266C102.158 17.6753 102.129 17.9556 102.088 18.1675C102.047 18.3793 101.985 18.5358 101.904 18.6365C101.822 18.7374 101.716 18.7878 101.586 18.7878C101.538 18.7878 101.489 18.7822 101.439 18.7706L101.412 19.0559C101.498 19.0761 101.581 19.0862 101.661 19.0862C101.848 19.0862 101.998 19.0235 102.11 18.8981C102.223 18.7728 102.307 18.5826 102.362 18.3275C102.416 18.0725 102.451 17.7359 102.466 17.3181L102.502 16.3064H104.005V19.0559H104.33ZM106.815 19.0516C106.507 19.0516 106.228 18.9846 105.977 18.8507C105.727 18.7166 105.531 18.5328 105.39 18.2993C105.249 18.066 105.179 17.8036 105.179 17.5127C105.179 17.2215 105.249 16.9591 105.39 16.7256C105.531 16.4923 105.727 16.3086 105.977 16.1745C106.228 16.0405 106.507 15.9735 106.815 15.9735C107.124 15.9735 107.402 16.0398 107.649 16.1723C107.897 16.3049 108.092 16.4887 108.235 16.7236C108.376 16.9585 108.448 17.2215 108.448 17.5127C108.448 17.8036 108.376 18.0667 108.235 18.3017C108.092 18.5365 107.897 18.7202 107.649 18.8528C107.402 18.9854 107.124 19.0516 106.815 19.0516ZM106.815 18.7663C107.062 18.7663 107.284 18.7124 107.483 18.6042C107.682 18.4961 107.837 18.3463 107.95 18.1545C108.063 17.963 108.118 17.749 108.118 17.5127C108.118 17.2763 108.063 17.0622 107.95 16.8706C107.837 16.6789 107.682 16.5291 107.483 16.421C107.284 16.3129 107.062 16.2588 106.815 16.2588C106.57 16.2588 106.347 16.3129 106.146 16.421C105.946 16.5291 105.789 16.6789 105.675 16.8706C105.561 17.0622 105.504 17.2763 105.504 17.5127C105.504 17.749 105.561 17.963 105.675 18.1545C105.789 18.3463 105.946 18.4961 106.146 18.6042C106.347 18.7124 106.57 18.7663 106.815 18.7663ZM111.511 17.7482C111.399 17.6229 111.235 17.5385 111.018 17.4953C111.178 17.4376 111.303 17.3505 111.392 17.2337C111.48 17.117 111.525 16.9736 111.525 16.8036C111.525 16.5528 111.432 16.3612 111.245 16.2286C111.058 16.096 110.799 16.0296 110.466 16.0296H109.172V19.0559H110.551C110.922 19.0559 111.202 18.9854 111.394 18.8441C111.585 18.703 111.681 18.5011 111.681 18.2388C111.681 18.0371 111.624 17.8735 111.511 17.7482ZM110.449 17.4001H109.497V16.2847H110.449C110.689 16.2847 110.874 16.3323 111.002 16.4273C111.132 16.5225 111.196 16.6608 111.196 16.8426C111.196 17.0241 111.132 17.1624 111.002 17.2574C110.874 17.3526 110.689 17.4001 110.449 17.4001ZM111.356 18.2173C111.356 18.6063 111.088 18.8009 110.551 18.8009H109.497V17.6466H110.551C111.088 17.6466 111.356 17.8368 111.356 18.2173Z" fill="#2E2E2E"/>
<path fill-rule="evenodd" clip-rule="evenodd" d="M105.673 10.6842L105.689 10.7291C105.709 11.9392 105.358 12.8578 104.633 13.4828C103.911 14.1078 102.887 14.419 101.562 14.4215C100.21 14.419 99.1269 14.0181 98.3097 13.2164C97.49 12.4147 97.0827 11.364 97.0827 10.0644V7.84836C97.0827 6.55359 97.4773 5.50539 98.2638 4.70116C99.0525 3.89444 100.095 3.49359 101.388 3.49359C102.774 3.49359 103.847 3.80726 104.605 4.43476C105.363 5.06226 105.732 5.97354 105.711 7.16857L105.689 7.21334H103.219C103.219 6.56113 103.079 6.09544 102.792 5.81421C102.508 5.53026 102.039 5.39098 101.388 5.39098C100.82 5.39098 100.382 5.61241 100.077 6.05821C99.772 6.50134 99.6185 7.0939 99.6185 7.83328V10.0644C99.6185 10.8088 99.7852 11.4062 100.12 11.852C100.456 12.3001 100.937 12.5243 101.562 12.5243C102.141 12.5243 102.561 12.3823 102.82 12.101C103.076 11.8196 103.204 11.3466 103.204 10.6842H105.673ZM74.9231 14.2814H72.3925V5.55703H68.348V14.2814H65.8127V3.65986H74.9231V14.2814ZM85.7795 3.65986V14.2814H83.249V5.55703H80.547V8.38805C80.547 10.5168 80.2015 12.0331 79.5046 12.9319C78.8104 13.8308 77.7654 14.2814 76.3695 14.2814H76.0831V12.3842H76.3774C77.0611 12.3842 77.5042 12.1153 77.7042 11.58C77.9041 11.0422 78.0038 9.97641 78.0038 8.38805V3.65986H85.7795ZM90.1141 12.2174H93.3616L93.9993 14.2814H96.6707L93.1004 3.65986H91.7431L91.7352 3.66721V3.65986H90.3753L86.8124 14.2814H89.4838L90.1141 12.2174ZM92.7776 10.3202H90.6981L91.712 7.02349H91.7558L92.7776 10.3202ZM111.585 5.55703H114.474V3.65986H106.211V5.55703H109.049V14.2814H111.585V5.55703Z" fill="#FF6600"/>
<path fill-rule="evenodd" clip-rule="evenodd" d="M9.53906 9.69432C9.53906 9.51371 9.6366 9.34668 9.79607 9.25637C10.6911 8.74847 13.6906 7.04863 15.1261 6.23489C15.2855 6.14345 15.4818 6.14458 15.6412 6.23601C15.8008 6.3274 15.8983 6.49448 15.896 6.67617C15.881 8.80037 15.8409 14.112 15.8306 15.4044C15.8295 15.5827 15.7331 15.7464 15.5781 15.8367C14.6981 16.3457 11.7365 18.0625 10.3136 18.8864C10.1552 18.9778 9.95786 18.9789 9.79723 18.8898C9.63771 18.7995 9.53906 18.6313 9.53906 18.4507C9.53906 16.3231 9.53906 11.0002 9.53906 9.69432Z" fill="#FF6600"/>
<path fill-rule="evenodd" clip-rule="evenodd" d="M3.15742 3.99783C2.99792 4.08812 2.90039 4.25517 2.90039 4.43689C2.90039 4.61749 2.99792 4.78453 3.15742 4.87483C4.58831 5.68749 7.59237 7.3941 8.48853 7.902C8.64689 7.99231 8.84307 7.99231 9.0026 7.902C10.072 7.29477 14.1937 4.95384 15.9241 3.97187C16.0836 3.88157 16.1811 3.71453 16.1811 3.53394C16.1811 3.35222 16.0836 3.18517 15.9241 3.09487C14.4921 2.28222 11.488 0.575636 10.593 0.0677216C10.4334 -0.0225739 10.2373 -0.0225739 10.0789 0.0677216C9.00829 0.674959 4.88665 3.01587 3.15742 3.99783Z" fill="#FF6600"/>
<path fill-rule="evenodd" clip-rule="evenodd" d="M0 5.76425C0 5.58364 0.0975332 5.41661 0.257031 5.32631C0.416528 5.236 0.611594 5.236 0.771091 5.32631C2.50147 6.30825 6.62316 8.64918 7.69255 9.25641C7.85207 9.34672 7.94961 9.51374 7.94961 9.69436C7.94961 10.7113 7.94961 14.1245 7.94961 15.7498C7.94961 15.9304 7.85207 16.0974 7.69255 16.1877C7.53308 16.278 7.338 16.278 7.17853 16.1877C5.44815 15.2057 1.32647 12.8649 0.257031 12.2576C0.0975332 12.1673 0 12.0003 0 11.8197C0 10.8027 0 7.38954 0 5.76425Z" fill="#FF6600"/>
</g>
<defs>
<clipPath id="clip0_33_3126">
<rect width="115" height="20" fill="white"/>
</clipPath>
</defs>
</svg>
