<svg width="111" height="12" viewBox="0 0 111 12" fill="none" xmlns="http://www.w3.org/2000/svg">
<g clip-path="url(#clip0_33_3161)">
<path d="M9.94531 0.62146V11.382H8.58642L1.65382 3.35671V11.375H0V0.62146H1.35516L8.29523 8.64323V0.62146H9.94531Z" fill="#1D1D1B"/>
<path d="M12.4766 5.99826C12.4766 2.84995 15.0898 0.5 18.6364 0.5C22.1829 0.5 24.7663 2.83607 24.7663 5.99826C24.7663 9.16046 22.1531 11.5 18.6364 11.5C15.1197 11.5 12.4766 9.15005 12.4766 5.99826ZM23.1163 5.99826C23.1303 5.44931 23.0237 4.90347 22.803 4.39413C22.5824 3.88479 22.2523 3.42266 21.8329 3.03601C21.4136 2.64936 20.9138 2.34632 20.3642 2.14542C19.8146 1.94453 19.2267 1.85 18.6364 1.86762C18.0439 1.84714 17.4532 1.9395 16.9006 2.13902C16.3479 2.33855 15.845 2.64102 15.4226 3.02787C15.0003 3.41472 14.6674 3.87777 14.4446 4.38857C14.2217 4.89938 14.1135 5.44716 14.1266 5.99826C14.1135 6.54952 14.2217 7.09745 14.4445 7.60844C14.6674 8.11943 15.0001 8.58269 15.4224 8.96981C15.8447 9.35693 16.3476 9.65974 16.9003 9.85965C17.453 10.0596 18.0438 10.1524 18.6364 10.1324C19.2268 10.1495 19.8148 10.0545 20.3645 9.85326C20.9141 9.65197 21.4138 9.3486 21.8331 8.96167C22.2524 8.57475 22.5824 8.11241 22.8031 7.60289C23.0237 7.09337 23.1302 6.54737 23.1163 5.99826Z" fill="#1D1D1B"/>
<path d="M36.9767 0.621582L31.907 11.3821H30.2681L25.1797 0.621582H26.9642L31.1267 9.4556L35.3266 0.621582H36.9767Z" fill="#1D1D1B"/>
<path d="M46.3486 5.93926H47.9352V10.1324C46.6903 11.0467 45.1422 11.5302 43.5561 11.5C40.0021 11.5 37.3926 9.18129 37.3926 5.99826C37.3926 2.81524 40.0021 0.5 43.5897 0.5C45.4227 0.5 46.9758 1.06926 48.0323 2.1592L47.0094 3.11029C46.5687 2.70283 46.0437 2.38265 45.4663 2.16907C44.8888 1.95549 44.2707 1.85294 43.6495 1.86762C40.9727 1.86762 39.0427 3.60319 39.0427 5.99826C39.0427 8.39334 40.9727 10.1324 43.6345 10.1324C44.5913 10.1508 45.5332 9.90953 46.3449 9.43815L46.3486 5.93926Z" fill="#1D1D1B"/>
<path d="M50.1484 5.99826C50.1484 2.84995 52.7617 0.5 56.312 0.5C59.8623 0.5 62.4419 2.83607 62.4419 5.99826C62.4419 9.16046 59.8287 11.5 56.312 11.5C52.7953 11.5 50.1484 9.15005 50.1484 5.99826ZM60.7881 5.99826C60.8027 5.44918 60.6965 4.90311 60.476 4.39354C60.2555 3.88397 59.9255 3.42164 59.506 3.03489C59.0866 2.64813 58.5866 2.34511 58.0367 2.14439C57.4868 1.94368 56.8987 1.8495 56.3083 1.86762C53.695 1.86762 51.7948 3.60319 51.7948 5.99826C51.7948 7.10667 52.2683 8.16967 53.1113 8.95343C53.9542 9.73719 55.0975 10.1775 56.2896 10.1775C57.4817 10.1775 58.625 9.73719 59.4679 8.95343C60.3108 8.16967 60.7844 7.10667 60.7844 5.99826H60.7881Z" fill="#1D1D1B"/>
<path d="M64.959 0.621582H69.8308C73.5641 0.621582 76.0765 2.80492 76.0765 5.99836C76.0765 9.19179 73.5454 11.3751 69.842 11.3751H64.959V0.621582ZM69.7338 10.0387C72.5897 10.0387 74.4264 8.41079 74.4264 5.99836C74.4264 3.58592 72.6009 1.95797 69.745 1.95797H66.6203V10.0387H69.7338Z" fill="#1D1D1B"/>
<path d="M87.0095 10.0387V11.3751H78.6172V0.621582H86.778V1.95797H80.2635V5.26248H86.065V6.56762H80.2635V10.0387H87.0095Z" fill="#1D1D1B"/>
<path d="M99.6328 0.621582V11.3821H98.2777L91.3413 3.35683V11.3751H89.6875V0.621582H91.0427L97.9827 8.64335V0.621582H99.6328Z" fill="#1D1D1B"/>
<path d="M105.4 1.95784H101.436V0.62146H111V1.95784H107.035V11.375H105.4V1.95784Z" fill="#1D1D1B"/>
</g>
<defs>
<clipPath id="clip0_33_3161">
<rect width="111" height="11" fill="white" transform="translate(0 0.5)"/>
</clipPath>
</defs>
</svg>
